<svg xmlns="http://www.w3.org/2000/svg" xmlns:xlink="http://www.w3.org/1999/xlink" viewBox="0 0 508 508" xml:space="preserve">
	<circle style="fill:#90DFAA;" cx="254" cy="254" r="254"/>
	<path style="fill:#2C9984;" d="M65.6,424c46.4,51.6,113.6,84,188.4,84s142-32.4,188.4-84H65.6z"/>
	<path style="fill:#FFFFFF;" d="M389.2,197.2c2.8-4,4.4-8.4,4.4-13.2c0-8.8-5.2-16.4-12.8-21.2c4.8-6.8,6-15.6,2-23.6  s-12-13.6-21.6-15.6c1.6-8-1.6-16.4-8.8-22.8c-7.2-6-17.6-8.8-26.8-7.2c-2.4-8-8.8-14.8-18.4-18s-20-2.4-28.4,2  c-5.6-6.4-14.8-10.8-25.2-10.8c-10.4,0-19.6,4.4-25.2,10.8c-8.4-4.4-18.8-5.2-28.4-2c-9.6,3.2-16,10.4-18.4,18  c-9.6-1.2-19.6,1.2-26.8,7.2s-10.4,14.8-8.8,22.8c-9.2,2-17.6,7.6-21.6,15.6c-4,8-2.8,16.8,2,23.6c-7.6,4.8-12.8,12.4-12.8,21.2  c0,4.8,1.6,9.2,4.4,13.2L389.2,197.2L389.2,197.2z"/>
	<path style="fill:#FF7058;" d="M198.8,424h-37.6l-44.4-224c-2.8-15.2,7.2-27.6,23.2-27.6l0,0c16,0,30.4,12.8,32,27.6L198.8,424z"/>
	<path style="fill:#E6E9EE;" d="M236.4,424h-37.6L172,199.6c-1.6-15.2,9.6-27.6,25.6-27.6l0,0c16,0,29.2,12.8,30,27.6L236.4,424z"/>
	<path style="fill:#FF7058;" d="M274,424h-37.6l-8.8-224.4c-0.4-15.2,11.6-27.6,27.6-27.6l0,0c16,0,28.4,12.8,27.6,27.6L274,424z"/>
	<path style="fill:#E6E9EE;" d="M311.6,424H274l8.8-224.4c0.4-15.2,14-27.6,30-27.6l0,0c16,0,27.2,12.8,25.6,27.6L311.6,424z"/>
	<path style="fill:#FF7058;" d="M349.2,424h-37.6L338,200c1.6-15.2,16-27.6,32-27.6l0,0c16,0,26.4,12.8,23.2,27.6L349.2,424z"/>
	<g>
		<ellipse style="fill:#FFD05B;" cx="295.6" cy="102.4" rx="7.2" ry="6.4"/>
		<ellipse style="fill:#FFD05B;" cx="206" cy="114.8" rx="7.2" ry="6.4"/>
		<ellipse style="fill:#FFD05B;" cx="274" cy="147.6" rx="7.2" ry="6.4"/>
	</g>
</svg>